<svg width="777" height="268" viewBox="0 0 777 268" fill="none" xmlns="http://www.w3.org/2000/svg">
<path d="M654.732 154.056H703.368V161.409H664.297V172.081H699.663V178.979H664.297V190.301H703.705V197.654H654.732V154.056Z" fill="black"/>
<path d="M617.213 152.733H619.387C635.46 152.733 646.659 158.8 646.593 171.337H636.91C636.91 165.068 630.915 161.024 619.387 161.024H617.213C605.817 161.024 599.493 165.405 599.493 174.303V177.201C599.493 186.301 605.817 190.682 617.213 190.682H619.387C630.915 190.682 637.107 186.436 637.107 180.369H646.791C646.725 192.368 635.394 198.973 619.387 198.973H617.213C601.601 198.973 589.876 192.233 589.876 177.201V174.303C589.876 159.204 601.601 152.733 617.213 152.733Z" fill="black"/>
<path d="M528.991 154.056H541.239L571.267 186.137H572.979V154.056H581.935V197.654H569.686L539.659 165.574H537.946V197.654H528.991V154.056Z" fill="black"/>
<path d="M472.076 154.056H520.712V161.409H481.641V172.081H517.007V178.979H481.641V190.301H521.049V197.654H472.076V154.056Z" fill="black"/>
<path d="M408.543 154.056H438.112C454.702 154.056 464.134 160.043 464.134 174.098V177.808C464.134 191.798 455.036 197.654 438.112 197.654H408.543V154.056ZM418.11 161.67V190.041H438.112C449.819 190.041 454.301 186.202 454.301 177.808V174.098C454.301 165.769 449.952 161.67 438.112 161.67H418.11Z" fill="black"/>
<path d="M723.6 95.3015H735.848L765.876 127.382H767.588V95.3015H776.543V138.899H764.295L734.267 106.819H732.555V138.899H723.6V95.3015Z" fill="black"/>
<path d="M666.686 95.3015H715.322V102.655H676.251V113.326H711.617V120.224H676.251V131.546H715.659V138.899H666.686V95.3015Z" fill="black"/>
<path d="M608.447 95.3015H641.541C653.557 95.3015 658.744 100.247 658.744 108.446V110.333C658.744 118.857 653.557 123.673 641.541 123.673H617.837V138.899H608.447V95.3015ZM617.837 102.915V116.059H640.424C645.94 116.059 649.092 114.563 649.092 110.073V108.706C649.092 104.477 645.94 102.915 640.424 102.915H617.837Z" fill="black"/>
<path d="M551.532 95.3015H600.168V102.655H561.098V113.326H596.463V120.224H561.098V131.546H600.505V138.899H551.532V95.3015Z" fill="black"/>
<path d="M489.324 95.3015H518.188C534.383 95.3015 543.591 101.288 543.591 115.344V119.053C543.591 133.043 534.71 138.899 518.188 138.899H489.324V95.3015ZM498.662 102.915V131.286H518.188C529.616 131.286 533.991 127.447 533.991 119.053V115.344C533.991 107.014 529.747 102.915 518.188 102.915H498.662Z" fill="black"/>
<path d="M425.791 95.3015H438.345L469.124 127.382H470.879V95.3015H480.058V138.899H467.504L436.725 106.819H434.971V138.899H425.791V95.3015Z" fill="black"/>
<path d="M417.85 138.897H408.584V100.584C408.584 102.571 410.438 103.845 412.812 103.845H413.564C415.808 103.845 417.727 102.65 417.844 100.768L417.85 100.584V138.897Z" fill="black"/>
<path d="M412.812 93.9783H413.565C415.881 93.9783 417.85 95.5884 417.85 97.9417C417.85 100.357 415.881 101.905 413.565 101.905H412.812C410.438 101.905 408.585 100.357 408.585 97.9417C408.585 95.5884 410.438 93.9783 412.812 93.9783Z" fill="#F60E12"/>
<path d="M680.625 250.542L681.008 249.224C681.277 249.338 681.597 249.465 681.966 249.607C682.349 249.748 682.767 249.869 683.221 249.968C683.675 250.053 684.122 250.095 684.562 250.095C685.328 250.095 685.967 249.996 686.478 249.798C686.989 249.6 687.372 249.324 687.627 248.97C687.897 248.601 688.032 248.198 688.032 247.759C688.032 247.235 687.883 246.788 687.585 246.42C687.301 246.052 686.875 245.712 686.308 245.4C685.74 245.075 685.038 244.742 684.2 244.402C683.576 244.119 683.023 243.835 682.54 243.552C682.072 243.255 681.675 242.936 681.348 242.596C681.036 242.242 680.795 241.86 680.625 241.449C680.469 241.038 680.391 240.585 680.391 240.089C680.391 239.395 680.575 238.779 680.944 238.241C681.327 237.703 681.859 237.271 682.54 236.945C683.236 236.619 684.059 236.457 685.009 236.457C685.719 236.457 686.4 236.549 687.052 236.733C687.705 236.917 688.259 237.122 688.713 237.349L688.138 238.645C687.897 238.531 687.627 238.418 687.329 238.305C687.045 238.192 686.719 238.099 686.35 238.029C685.995 237.944 685.577 237.901 685.094 237.901C684.186 237.901 683.441 238.092 682.86 238.475C682.292 238.857 682.008 239.388 682.008 240.068C682.008 240.578 682.15 241.017 682.434 241.385C682.732 241.753 683.172 242.1 683.753 242.426C684.335 242.738 685.045 243.099 685.882 243.51C686.506 243.779 687.052 244.055 687.521 244.338C687.989 244.621 688.386 244.926 688.713 245.252C689.039 245.577 689.287 245.946 689.458 246.356C689.628 246.753 689.713 247.213 689.713 247.737C689.713 248.474 689.507 249.125 689.096 249.692C688.698 250.258 688.117 250.704 687.35 251.03C686.598 251.356 685.676 251.519 684.584 251.519C684.286 251.519 683.945 251.491 683.562 251.434C683.193 251.377 682.817 251.306 682.434 251.221C682.051 251.136 681.703 251.037 681.391 250.924C681.079 250.797 680.823 250.669 680.625 250.542Z" fill="black"/>
<path d="M657.668 251.54C656.362 251.54 655.199 251.221 654.177 250.584C653.156 249.947 652.354 249.069 651.772 247.95C651.205 246.817 650.921 245.528 650.921 244.083C650.921 242.639 651.212 241.35 651.794 240.217C652.389 239.07 653.198 238.163 654.22 237.498C655.256 236.832 656.433 236.485 657.753 236.457C659.058 236.457 660.222 236.782 661.244 237.434C662.265 238.071 663.067 238.949 663.649 240.068C664.23 241.187 664.521 242.469 664.521 243.913C664.521 245.358 664.223 246.654 663.627 247.801C663.046 248.948 662.237 249.855 661.201 250.52C660.179 251.172 659.002 251.512 657.668 251.54ZM657.625 250.074C658.619 250.074 659.498 249.812 660.264 249.288C661.031 248.764 661.634 248.042 662.074 247.121C662.513 246.187 662.733 245.124 662.733 243.935C662.733 242.773 662.521 241.739 662.095 240.833C661.669 239.926 661.08 239.218 660.328 238.708C659.591 238.199 658.746 237.944 657.796 237.944C656.802 237.944 655.923 238.206 655.156 238.73C654.39 239.254 653.787 239.976 653.347 240.897C652.907 241.817 652.687 242.872 652.687 244.062C652.687 245.223 652.9 246.257 653.326 247.164C653.752 248.07 654.333 248.785 655.071 249.309C655.809 249.819 656.66 250.074 657.625 250.074Z" fill="black"/>
<path d="M633.986 251.242H632.326V236.796H633.986V251.242Z" fill="black"/>
<path d="M609.621 238.22H607.343V243.956H609.45C610.131 243.956 610.756 243.863 611.323 243.679C611.891 243.495 612.352 243.198 612.707 242.787C613.061 242.362 613.239 241.789 613.239 241.066C613.239 240.316 613.083 239.735 612.771 239.324C612.458 238.914 612.033 238.63 611.494 238.474C610.954 238.304 610.33 238.22 609.621 238.22ZM605.683 236.796H609.621C610.628 236.796 611.536 236.938 612.345 237.221C613.154 237.49 613.792 237.936 614.26 238.559C614.729 239.168 614.963 239.983 614.963 241.003C614.949 241.98 614.7 242.78 614.218 243.403C613.75 244.012 613.147 244.472 612.409 244.784L616.091 251.242H614.239L610.919 245.23C610.72 245.259 610.472 245.28 610.174 245.294C609.89 245.308 609.628 245.315 609.386 245.315H607.343V251.242H605.683V236.796Z" fill="black"/>
<path d="M585.668 245.784L583.05 239.028L580.517 245.784H585.668ZM582.262 236.797H583.859L589.435 251.116L587.775 251.392L586.157 247.143H580.049L578.538 251.244H576.899L582.262 236.797ZM583.263 235.544L582.135 235.225L583.284 232.23H585.114L583.263 235.544Z" fill="black"/>
<path d="M560.667 251.242H559.007V236.796H560.667V251.242Z" fill="black"/>
<path d="M542.6 249.925L542.77 251.242H534.193V236.796H535.853V249.925H542.6Z" fill="black"/>
<path d="M516.193 251.242H514.533V236.796H516.193V251.242Z" fill="black"/>
<path d="M492.466 251.242H487.932V236.796H491.955C492.948 236.796 493.828 236.917 494.594 237.157C495.36 237.398 495.956 237.795 496.382 238.347C496.822 238.899 497.042 239.664 497.042 240.641C497.042 241.307 496.843 241.881 496.446 242.362C496.048 242.83 495.58 243.212 495.041 243.509C495.864 243.793 496.531 244.232 497.042 244.827C497.567 245.421 497.829 246.207 497.829 247.185C497.829 247.921 497.687 248.551 497.403 249.075C497.134 249.585 496.751 250.003 496.254 250.329C495.772 250.64 495.204 250.874 494.551 251.03C493.913 251.172 493.218 251.242 492.466 251.242ZM491.891 238.22H489.614V243.084H491.572C492.253 243.07 492.877 242.992 493.445 242.851C494.012 242.695 494.466 242.44 494.807 242.086C495.162 241.732 495.339 241.257 495.339 240.663C495.339 239.997 495.197 239.487 494.913 239.133C494.629 238.779 494.225 238.538 493.7 238.411C493.189 238.283 492.586 238.22 491.891 238.22ZM492.657 244.465H489.614V249.84H492.444C493.14 249.84 493.764 249.762 494.317 249.607C494.871 249.437 495.311 249.16 495.637 248.778C495.963 248.396 496.126 247.879 496.126 247.227C496.126 246.25 495.807 245.549 495.169 245.124C494.544 244.685 493.707 244.465 492.657 244.465Z" fill="black"/>
<path d="M464.145 251.54C462.84 251.54 461.676 251.221 460.655 250.584C459.633 249.947 458.832 249.069 458.25 247.95C457.682 246.817 457.398 245.528 457.398 244.083C457.398 242.639 457.689 241.35 458.271 240.217C458.867 239.07 459.676 238.163 460.697 237.498C461.733 236.832 462.911 236.485 464.231 236.457C465.536 236.457 466.699 236.782 467.721 237.434C468.743 238.071 469.544 238.949 470.126 240.068C470.708 241.187 470.999 242.469 470.999 243.913C470.999 245.358 470.701 246.654 470.105 247.801C469.523 248.948 468.714 249.855 467.678 250.52C466.657 251.172 465.479 251.512 464.145 251.54ZM464.103 250.074C465.096 250.074 465.976 249.812 466.742 249.288C467.508 248.764 468.111 248.042 468.551 247.121C468.991 246.187 469.211 245.124 469.211 243.935C469.211 242.773 468.998 241.739 468.572 240.833C468.147 239.926 467.558 239.218 466.806 238.708C466.068 238.199 465.224 237.944 464.273 237.944C463.28 237.944 462.4 238.206 461.634 238.73C460.868 239.254 460.265 239.976 459.825 240.897C459.385 241.817 459.165 242.872 459.165 244.062C459.165 245.223 459.378 246.257 459.803 247.164C460.229 248.07 460.811 248.785 461.549 249.309C462.287 249.819 463.138 250.074 464.103 250.074Z" fill="black"/>
<path d="M434.737 246.377L434.141 246.484L429.863 240.323V251.242H428.203V236.796H429.182L434.375 244.168L439.419 236.796H440.483V251.242H438.781V240.365L434.737 246.377Z" fill="black"/>
<path d="M410.204 251.242H408.543V236.796H410.204V251.242Z" fill="black"/>
<path d="M593.721 227.29L594.104 225.973C594.374 226.086 594.693 226.214 595.062 226.355C595.445 226.497 595.864 226.617 596.318 226.717C596.772 226.802 597.219 226.844 597.658 226.844C598.425 226.844 599.063 226.745 599.574 226.547C600.085 226.348 600.468 226.072 600.723 225.718C600.993 225.35 601.128 224.946 601.128 224.507C601.128 223.983 600.979 223.537 600.681 223.169C600.397 222.8 599.971 222.461 599.404 222.149C598.836 221.823 598.134 221.49 597.297 221.151C596.672 220.867 596.119 220.584 595.636 220.301C595.168 220.003 594.771 219.685 594.445 219.345C594.132 218.991 593.891 218.608 593.721 218.198C593.565 217.787 593.487 217.334 593.487 216.838C593.487 216.144 593.671 215.528 594.04 214.99C594.423 214.451 594.955 214.019 595.636 213.694C596.332 213.368 597.155 213.205 598.105 213.205C598.815 213.205 599.496 213.297 600.149 213.481C600.801 213.665 601.355 213.871 601.809 214.097L601.234 215.393C600.993 215.28 600.723 215.167 600.425 215.053C600.142 214.94 599.815 214.848 599.446 214.777C599.092 214.692 598.673 214.65 598.191 214.65C597.282 214.65 596.537 214.841 595.956 215.223C595.388 215.606 595.104 216.137 595.104 216.817C595.104 217.327 595.246 217.766 595.53 218.134C595.828 218.502 596.268 218.849 596.85 219.175C597.431 219.486 598.141 219.848 598.978 220.258C599.602 220.527 600.149 220.804 600.617 221.087C601.085 221.37 601.482 221.675 601.809 222C602.135 222.326 602.383 222.694 602.554 223.105C602.724 223.502 602.809 223.962 602.809 224.486C602.809 225.222 602.603 225.874 602.192 226.44C601.795 227.007 601.213 227.453 600.447 227.779C599.695 228.105 598.772 228.267 597.68 228.267C597.382 228.267 597.041 228.239 596.658 228.182C596.289 228.126 595.913 228.055 595.53 227.97C595.147 227.885 594.799 227.786 594.487 227.673C594.175 227.545 593.92 227.418 593.721 227.29Z" fill="black"/>
<path d="M570.764 228.289C569.459 228.289 568.295 227.97 567.274 227.333C566.252 226.695 565.45 225.817 564.868 224.698C564.301 223.565 564.017 222.276 564.017 220.832C564.017 219.387 564.308 218.098 564.89 216.965C565.486 215.818 566.294 214.912 567.316 214.246C568.352 213.58 569.53 213.233 570.849 213.205C572.155 213.205 573.318 213.531 574.34 214.182C575.361 214.82 576.163 215.698 576.745 216.817C577.327 217.936 577.617 219.217 577.617 220.662C577.617 222.107 577.319 223.402 576.724 224.55C576.142 225.697 575.333 226.603 574.297 227.269C573.276 227.92 572.098 228.26 570.764 228.289ZM570.721 226.823C571.715 226.823 572.594 226.561 573.361 226.037C574.127 225.513 574.73 224.79 575.17 223.87C575.61 222.935 575.83 221.873 575.83 220.683C575.83 219.522 575.617 218.488 575.191 217.581C574.765 216.675 574.177 215.967 573.425 215.457C572.687 214.947 571.842 214.692 570.892 214.692C569.899 214.692 569.019 214.954 568.253 215.478C567.486 216.002 566.883 216.725 566.443 217.645C566.004 218.566 565.784 219.621 565.784 220.811C565.784 221.972 565.996 223.006 566.422 223.912C566.848 224.819 567.43 225.534 568.167 226.058C568.905 226.568 569.757 226.823 570.721 226.823Z" fill="black"/>
<path d="M547.083 227.991H545.422V213.545H547.083V227.991Z" fill="black"/>
<path d="M528.913 214.076L528.381 215.308C528.069 215.18 527.764 215.074 527.466 214.989C527.182 214.89 526.87 214.819 526.53 214.777C526.189 214.72 525.778 214.692 525.295 214.692C524.345 214.692 523.486 214.954 522.72 215.478C521.968 216.002 521.365 216.724 520.911 217.645C520.471 218.565 520.251 219.627 520.251 220.831C520.251 221.653 520.357 222.425 520.57 223.147C520.783 223.869 521.095 224.514 521.507 225.08C521.932 225.633 522.443 226.065 523.039 226.376C523.649 226.688 524.337 226.844 525.104 226.844C525.841 226.844 526.459 226.78 526.955 226.652C527.452 226.525 527.899 226.376 528.296 226.206L528.935 227.46C528.637 227.615 528.268 227.757 527.828 227.885C527.402 228.012 526.955 228.111 526.487 228.182C526.019 228.253 525.579 228.288 525.167 228.288C524.061 228.288 523.089 228.09 522.252 227.693C521.414 227.297 520.712 226.759 520.145 226.079C519.591 225.385 519.173 224.592 518.889 223.699C518.619 222.807 518.484 221.858 518.484 220.853C518.484 219.776 518.64 218.778 518.953 217.857C519.265 216.937 519.712 216.129 520.294 215.435C520.889 214.741 521.606 214.203 522.443 213.821C523.295 213.438 524.245 213.247 525.295 213.247C525.593 213.247 525.962 213.275 526.402 213.332C526.856 213.389 527.303 213.481 527.743 213.608C528.197 213.722 528.587 213.877 528.913 214.076Z" fill="black"/>
<path d="M495.761 228.289C494.456 228.289 493.292 227.971 492.271 227.333C491.249 226.696 490.447 225.818 489.866 224.699C489.298 223.566 489.014 222.277 489.014 220.833C489.014 219.388 489.305 218.099 489.887 216.966C490.483 215.819 491.292 214.913 492.313 214.247C493.349 213.581 494.527 213.234 495.846 213.206C497.152 213.206 498.315 213.532 499.337 214.183C500.358 214.82 501.16 215.699 501.742 216.817C502.324 217.936 502.615 219.218 502.615 220.663C502.615 222.107 502.317 223.403 501.721 224.55C501.139 225.698 500.33 226.604 499.294 227.27C498.273 227.921 497.095 228.261 495.761 228.289ZM495.719 226.824C496.712 226.824 497.592 226.562 498.358 226.038C499.124 225.514 499.727 224.791 500.167 223.871C500.607 222.936 500.827 221.874 500.827 220.684C500.827 219.523 500.614 218.489 500.188 217.582C499.762 216.676 499.174 215.968 498.422 215.458C497.684 214.948 496.84 214.693 495.889 214.693C494.896 214.693 494.016 214.955 493.25 215.479C492.483 216.003 491.88 216.725 491.441 217.646C491.001 218.567 490.781 219.622 490.781 220.811C490.781 221.973 490.994 223.007 491.419 223.913C491.845 224.82 492.427 225.535 493.164 226.059C493.902 226.569 494.754 226.824 495.719 226.824ZM496.059 212.292L497.911 208.978H496.08L494.931 211.974L496.059 212.292Z" fill="black"/>
<path d="M468.136 221.83L468.285 220.555H472.925V227.29C472.627 227.474 472.251 227.644 471.797 227.8C471.343 227.955 470.861 228.076 470.35 228.161C469.853 228.246 469.364 228.288 468.881 228.288C467.42 228.288 466.136 227.962 465.029 227.311C463.936 226.645 463.092 225.753 462.496 224.634C461.914 223.515 461.624 222.255 461.624 220.853C461.624 219.72 461.808 218.693 462.177 217.772C462.56 216.837 463.085 216.03 463.752 215.35C464.433 214.67 465.228 214.153 466.136 213.799C467.044 213.431 468.023 213.247 469.073 213.247C469.371 213.247 469.747 213.275 470.201 213.332C470.655 213.389 471.109 213.481 471.563 213.608C472.031 213.722 472.414 213.877 472.712 214.076L472.18 215.308C471.868 215.18 471.57 215.074 471.286 214.989C471.003 214.89 470.69 214.819 470.35 214.777C470.009 214.72 469.598 214.692 469.115 214.692C468.378 214.692 467.668 214.833 466.987 215.117C466.306 215.386 465.689 215.782 465.135 216.306C464.596 216.816 464.17 217.453 463.858 218.218C463.546 218.983 463.39 219.854 463.39 220.831C463.39 222.049 463.624 223.112 464.092 224.018C464.575 224.924 465.228 225.626 466.051 226.121C466.888 226.603 467.824 226.844 468.86 226.844C469.357 226.844 469.811 226.801 470.222 226.716C470.634 226.631 471.003 226.532 471.329 226.419V221.83H468.136Z" fill="black"/>
<path d="M446.225 227.991H437.52V213.545H445.416L445.608 214.819H439.18V219.982H444.203L444.395 221.256H439.18V226.674H446.034L446.225 227.991Z" fill="black"/>
<path d="M410.23 227.991H408.57V213.545H409.89L416.935 223.317L417.807 224.741V213.545H419.51V227.991H418.169L410.784 217.602L410.23 216.668V227.991Z" fill="black"/>
<path d="M35.2689 267.425H6.04609C2.70693 267.425 0 265.183 0 262.416V138.962C0 137.172 1.15238 135.519 3.02305 134.624L32.2458 120.645C36.2765 118.717 41.315 121.127 41.315 124.983V262.416C41.315 265.183 38.608 267.425 35.2689 267.425Z" fill="black"/>
<path d="M91.3627 262.405V89.8078C91.3627 87.8746 92.6896 86.1131 94.7746 85.2784L141.419 60.3668C145.405 58.7711 150.017 61.2008 150.017 64.8963V262.405C150.017 265.178 152.705 267.426 156.022 267.426H183.043C186.359 267.426 189.048 265.178 189.048 262.405V5.02782C189.048 1.34076 184.455 -1.08917 180.471 0.490039L54.7639 64.3597C52.6675 65.1907 51.3311 66.9573 51.3311 68.8975V262.405C51.3311 265.178 54.0195 267.426 57.3358 267.426H85.3579C88.6742 267.426 91.3627 265.178 91.3627 262.405Z" fill="black"/>
<path d="M0 119.916V94.8289C0 92.9006 1.30272 91.1411 3.35584 90.2966L30.225 79.2438C34.1912 77.6123 38.811 80.051 38.811 83.7762V106.818C38.811 108.619 37.673 110.284 35.8256 111.184L8.95639 124.283C4.97577 126.223 0 123.797 0 119.916Z" fill="#F60E12"/>
<path d="M326.482 91.5056L248.585 58.5162C244.608 56.9221 240.009 59.3543 240.009 63.0519V106.536C240.009 110.577 234.615 112.966 230.638 110.687L201.676 94.0947C200.041 93.1581 199.063 91.6044 199.063 89.9435V5.03297C199.063 1.34214 203.646 -1.09028 207.622 0.490541L368.41 66.1927C370.501 67.0246 371.835 68.793 371.835 70.7351V262.399C371.835 265.176 369.152 267.426 365.843 267.426H205.056C201.746 267.426 199.063 265.176 199.063 262.399V132.088C199.063 128.086 204.367 125.689 208.351 127.89L237.313 143.89C238.996 144.82 240.009 146.398 240.009 148.089V229.161C240.009 231.937 242.692 234.188 246.001 234.188H323.898C327.208 234.188 329.891 231.937 329.891 229.161V159.951V96.0414C329.891 94.1048 328.565 92.3405 326.482 91.5056Z" fill="black"/>
</svg>
