<svg width="1616" height="268" viewBox="0 0 1616 268" fill="none" xmlns="http://www.w3.org/2000/svg">
<path d="M1491.98 232.84L1492.65 230.544C1493.12 230.742 1493.67 230.964 1494.32 231.211C1494.99 231.458 1495.72 231.668 1496.51 231.84C1497.3 231.989 1498.08 232.063 1498.84 232.063C1500.18 232.063 1501.29 231.89 1502.18 231.544C1503.07 231.198 1503.74 230.717 1504.19 230.1C1504.66 229.458 1504.89 228.754 1504.89 227.989C1504.89 227.076 1504.63 226.298 1504.11 225.656C1503.62 225.014 1502.88 224.422 1501.89 223.879C1500.9 223.311 1499.67 222.731 1498.21 222.138C1497.12 221.644 1496.16 221.151 1495.32 220.657C1494.5 220.138 1493.81 219.583 1493.24 218.99C1492.7 218.373 1492.28 217.707 1491.98 216.991C1491.71 216.275 1491.57 215.485 1491.57 214.621C1491.57 213.411 1491.89 212.337 1492.54 211.399C1493.2 210.461 1494.13 209.708 1495.32 209.14C1496.53 208.572 1497.97 208.288 1499.62 208.288C1500.86 208.288 1502.05 208.449 1503.18 208.77C1504.32 209.09 1505.29 209.448 1506.08 209.843L1505.08 212.102C1504.66 211.905 1504.19 211.707 1503.67 211.51C1503.17 211.312 1502.6 211.152 1501.96 211.028C1501.34 210.88 1500.61 210.806 1499.77 210.806C1498.19 210.806 1496.89 211.14 1495.88 211.806C1494.89 212.473 1494.39 213.398 1494.39 214.584C1494.39 215.472 1494.64 216.238 1495.13 216.879C1495.65 217.521 1496.42 218.126 1497.43 218.694C1498.45 219.237 1499.68 219.867 1501.14 220.583C1502.23 221.052 1503.18 221.533 1504 222.027C1504.82 222.521 1505.51 223.051 1506.08 223.619C1506.65 224.187 1507.08 224.829 1507.38 225.545C1507.67 226.236 1507.82 227.039 1507.82 227.952C1507.82 229.236 1507.46 230.371 1506.75 231.359C1506.05 232.346 1505.04 233.124 1503.7 233.692C1502.39 234.26 1500.79 234.544 1498.88 234.544C1498.36 234.544 1497.77 234.494 1497.1 234.396C1496.46 234.297 1495.8 234.173 1495.13 234.025C1494.47 233.877 1493.86 233.704 1493.32 233.507C1492.77 233.285 1492.33 233.062 1491.98 232.84Z" fill="black"/>
<path d="M1451.96 234.581C1449.69 234.581 1447.66 234.025 1445.88 232.914C1444.1 231.803 1442.7 230.273 1441.69 228.322C1440.7 226.347 1440.2 224.101 1440.2 221.583C1440.2 219.064 1440.71 216.818 1441.72 214.843C1442.76 212.843 1444.17 211.263 1445.95 210.103C1447.76 208.942 1449.81 208.337 1452.11 208.288C1454.39 208.288 1456.42 208.856 1458.2 209.992C1459.98 211.103 1461.37 212.633 1462.39 214.584C1463.4 216.534 1463.91 218.768 1463.91 221.286C1463.91 223.804 1463.39 226.063 1462.35 228.063C1461.34 230.063 1459.93 231.643 1458.12 232.803C1456.34 233.939 1454.29 234.531 1451.96 234.581ZM1451.89 232.026C1453.62 232.026 1455.15 231.569 1456.49 230.655C1457.83 229.742 1458.88 228.483 1459.64 226.878C1460.41 225.249 1460.79 223.397 1460.79 221.323C1460.79 219.299 1460.42 217.497 1459.68 215.917C1458.94 214.337 1457.91 213.102 1456.6 212.213C1455.31 211.325 1453.84 210.88 1452.19 210.88C1450.45 210.88 1448.92 211.337 1447.59 212.25C1446.25 213.164 1445.2 214.423 1444.43 216.028C1443.67 217.632 1443.28 219.472 1443.28 221.546C1443.28 223.57 1443.65 225.372 1444.4 226.952C1445.14 228.532 1446.15 229.779 1447.44 230.692C1448.72 231.581 1450.21 232.026 1451.89 232.026Z" fill="black"/>
<path d="M1410.68 234.062H1407.79V208.88H1410.68V234.062Z" fill="black"/>
<path d="M1368.21 211.361H1364.24V221.36H1367.91C1369.1 221.36 1370.19 221.199 1371.18 220.878C1372.17 220.557 1372.97 220.039 1373.59 219.323C1374.21 218.582 1374.52 217.582 1374.52 216.323C1374.52 215.015 1374.25 214.003 1373.7 213.287C1373.16 212.571 1372.42 212.077 1371.48 211.805C1370.54 211.509 1369.45 211.361 1368.21 211.361ZM1361.35 208.88H1368.21C1369.97 208.88 1371.55 209.127 1372.96 209.621C1374.37 210.09 1375.48 210.867 1376.3 211.954C1377.11 213.015 1377.52 214.435 1377.52 216.212C1377.5 217.916 1377.07 219.311 1376.22 220.397C1375.41 221.458 1374.36 222.261 1373.07 222.804L1379.49 234.062H1376.26L1370.47 223.582C1370.13 223.631 1369.69 223.668 1369.18 223.693C1368.68 223.717 1368.22 223.73 1367.8 223.73H1364.24V234.062H1361.35V208.88Z" fill="black"/>
<path d="M1326.46 224.546L1321.89 212.77L1317.48 224.546H1326.46ZM1320.52 208.882H1323.3L1333.03 233.841L1330.13 234.323L1327.31 226.916H1316.66L1314.03 234.063H1311.17L1320.52 208.882ZM1322.27 206.697L1320.3 206.141L1322.3 200.92H1325.49L1322.27 206.697Z" fill="black"/>
<path d="M1282.88 234.062H1279.99V208.88H1282.88V234.062Z" fill="black"/>
<path d="M1251.39 231.766L1251.68 234.062H1236.73V208.88H1239.62V231.766H1251.39Z" fill="black"/>
<path d="M1205.35 234.062H1202.46V208.88H1205.35V234.062Z" fill="black"/>
<path d="M1163.99 234.062H1156.09V208.88H1163.1C1164.84 208.88 1166.37 209.09 1167.7 209.509C1169.04 209.929 1170.08 210.62 1170.82 211.583C1171.59 212.546 1171.97 213.879 1171.97 215.583C1171.97 216.743 1171.62 217.743 1170.93 218.582C1170.24 219.397 1169.42 220.064 1168.48 220.582C1169.92 221.076 1171.08 221.841 1171.97 222.878C1172.89 223.915 1173.34 225.285 1173.34 226.988C1173.34 228.272 1173.1 229.371 1172.6 230.284C1172.13 231.173 1171.46 231.901 1170.6 232.469C1169.76 233.012 1168.77 233.42 1167.63 233.691C1166.52 233.938 1165.31 234.062 1163.99 234.062ZM1162.99 211.361H1159.02V219.841H1162.44C1163.62 219.817 1164.71 219.681 1165.7 219.434C1166.69 219.162 1167.48 218.718 1168.08 218.101C1168.69 217.484 1169 216.657 1169 215.62C1169 214.459 1168.76 213.571 1168.26 212.953C1167.77 212.336 1167.06 211.916 1166.15 211.694C1165.26 211.472 1164.2 211.361 1162.99 211.361ZM1164.33 222.248H1159.02V231.617H1163.96C1165.17 231.617 1166.26 231.482 1167.22 231.21C1168.19 230.914 1168.95 230.432 1169.52 229.766C1170.09 229.099 1170.38 228.198 1170.38 227.063C1170.38 225.359 1169.82 224.137 1168.71 223.396C1167.62 222.631 1166.16 222.248 1164.33 222.248Z" fill="black"/>
<path d="M1114.63 234.581C1112.35 234.581 1110.32 234.025 1108.54 232.914C1106.76 231.803 1105.37 230.273 1104.35 228.322C1103.36 226.347 1102.87 224.101 1102.87 221.583C1102.87 219.064 1103.37 216.818 1104.39 214.843C1105.43 212.843 1106.84 211.263 1108.62 210.103C1110.42 208.942 1112.48 208.337 1114.78 208.288C1117.05 208.288 1119.08 208.856 1120.86 209.992C1122.64 211.103 1124.04 212.633 1125.05 214.584C1126.07 216.534 1126.57 218.768 1126.57 221.286C1126.57 223.804 1126.05 226.063 1125.02 228.063C1124 230.063 1122.59 231.643 1120.79 232.803C1119.01 233.939 1116.95 234.531 1114.63 234.581ZM1114.55 232.026C1116.29 232.026 1117.82 231.569 1119.15 230.655C1120.49 229.742 1121.54 228.483 1122.31 226.878C1123.07 225.249 1123.46 223.397 1123.46 221.323C1123.46 219.299 1123.09 217.497 1122.34 215.917C1121.6 214.337 1120.58 213.102 1119.27 212.213C1117.98 211.325 1116.51 210.88 1114.85 210.88C1113.12 210.88 1111.59 211.337 1110.25 212.25C1108.91 213.164 1107.86 214.423 1107.1 216.028C1106.33 217.632 1105.95 219.472 1105.95 221.546C1105.95 223.57 1106.32 225.372 1107.06 226.952C1107.8 228.532 1108.82 229.779 1110.1 230.692C1111.39 231.581 1112.87 232.026 1114.55 232.026Z" fill="black"/>
<path d="M1063.36 225.581L1062.33 225.766L1054.87 215.027V234.062H1051.98V208.88H1053.68L1062.73 221.73L1071.53 208.88H1073.38V234.062H1070.41V215.101L1063.36 225.581Z" fill="black"/>
<path d="M1020.6 234.062H1017.71V208.88H1020.6V234.062Z" fill="black"/>
<path d="M939.606 232.84L940.274 230.544C940.744 230.742 941.301 230.964 941.944 231.211C942.611 231.458 943.341 231.668 944.133 231.84C944.924 231.989 945.703 232.063 946.47 232.063C947.806 232.063 948.919 231.89 949.809 231.544C950.699 231.198 951.367 230.717 951.812 230.1C952.282 229.458 952.517 228.754 952.517 227.989C952.517 227.076 952.258 226.298 951.738 225.656C951.244 225.014 950.502 224.422 949.512 223.879C948.523 223.311 947.299 222.731 945.839 222.138C944.751 221.644 943.786 221.151 942.945 220.657C942.129 220.138 941.437 219.583 940.868 218.99C940.324 218.373 939.903 217.707 939.606 216.991C939.334 216.275 939.198 215.485 939.198 214.621C939.198 213.411 939.52 212.337 940.163 211.399C940.831 210.461 941.758 209.708 942.945 209.14C944.157 208.572 945.592 208.288 947.249 208.288C948.486 208.288 949.673 208.449 950.811 208.77C951.948 209.09 952.913 209.448 953.705 209.843L952.703 212.102C952.282 211.905 951.812 211.707 951.293 211.51C950.798 211.312 950.229 211.152 949.586 211.028C948.968 210.88 948.238 210.806 947.397 210.806C945.814 210.806 944.516 211.14 943.502 211.806C942.513 212.473 942.018 213.398 942.018 214.584C942.018 215.472 942.265 216.238 942.76 216.879C943.279 217.521 944.046 218.126 945.06 218.694C946.074 219.237 947.311 219.867 948.77 220.583C949.858 221.052 950.811 221.533 951.627 222.027C952.443 222.521 953.136 223.051 953.705 223.619C954.273 224.187 954.706 224.829 955.003 225.545C955.3 226.236 955.448 227.039 955.448 227.952C955.448 229.236 955.09 230.371 954.372 231.359C953.68 232.346 952.666 233.124 951.33 233.692C950.019 234.26 948.412 234.544 946.507 234.544C945.988 234.544 945.394 234.494 944.726 234.396C944.083 234.297 943.428 234.173 942.76 234.025C942.092 233.877 941.486 233.704 940.942 233.507C940.398 233.285 939.953 233.062 939.606 232.84Z" fill="black"/>
<path d="M899.589 234.581C897.314 234.581 895.286 234.025 893.505 232.914C891.724 231.803 890.327 230.273 889.313 228.322C888.323 226.347 887.829 224.101 887.829 221.583C887.829 219.064 888.336 216.818 889.35 214.843C890.389 212.843 891.798 211.263 893.579 210.103C895.385 208.942 897.438 208.337 899.738 208.288C902.013 208.288 904.042 208.856 905.822 209.992C907.603 211.103 909.001 212.633 910.015 214.584C911.029 216.534 911.536 218.768 911.536 221.286C911.536 223.804 911.016 226.063 909.978 228.063C908.964 230.063 907.554 231.643 905.748 232.803C903.967 233.939 901.914 234.531 899.589 234.581ZM899.515 232.026C901.247 232.026 902.78 231.569 904.116 230.655C905.451 229.742 906.503 228.483 907.269 226.878C908.036 225.249 908.419 223.397 908.419 221.323C908.419 219.299 908.048 217.497 907.306 215.917C906.564 214.337 905.538 213.102 904.227 212.213C902.941 211.325 901.469 210.88 899.812 210.88C898.081 210.88 896.547 211.337 895.212 212.25C893.876 213.164 892.825 214.423 892.058 216.028C891.291 217.632 890.908 219.472 890.908 221.546C890.908 223.57 891.279 225.372 892.021 226.952C892.763 228.532 893.777 229.779 895.063 230.692C896.349 231.581 897.833 232.026 899.515 232.026Z" fill="black"/>
<path d="M858.309 234.062H855.416V208.88H858.309V234.062Z" fill="black"/>
<path d="M826.638 209.806L825.711 211.953C825.167 211.731 824.635 211.546 824.115 211.398C823.621 211.225 823.077 211.102 822.483 211.028C821.889 210.929 821.172 210.879 820.331 210.879C818.674 210.879 817.178 211.336 815.842 212.25C814.531 213.163 813.48 214.422 812.688 216.027C811.922 217.632 811.538 219.483 811.538 221.582C811.538 223.014 811.724 224.359 812.095 225.618C812.466 226.877 813.01 228.001 813.727 228.988C814.469 229.951 815.36 230.704 816.398 231.247C817.462 231.79 818.662 232.062 819.997 232.062C821.283 232.062 822.359 231.951 823.225 231.728C824.091 231.506 824.87 231.247 825.562 230.951L826.675 233.136C826.156 233.407 825.513 233.654 824.746 233.876C824.004 234.099 823.225 234.271 822.409 234.395C821.593 234.518 820.826 234.58 820.109 234.58C818.179 234.58 816.485 234.234 815.026 233.543C813.566 232.852 812.342 231.914 811.353 230.729C810.388 229.519 809.659 228.136 809.164 226.581C808.694 225.026 808.459 223.372 808.459 221.619C808.459 219.742 808.731 218.002 809.275 216.397C809.819 214.793 810.598 213.385 811.613 212.176C812.651 210.966 813.9 210.028 815.36 209.361C816.844 208.695 818.501 208.361 820.331 208.361C820.851 208.361 821.494 208.411 822.26 208.509C823.052 208.608 823.831 208.769 824.598 208.991C825.389 209.188 826.069 209.46 826.638 209.806Z" fill="black"/>
<path d="M768.849 234.582C766.574 234.582 764.546 234.026 762.765 232.916C760.984 231.805 759.586 230.274 758.572 228.324C757.583 226.349 757.088 224.102 757.088 221.584C757.088 219.066 757.595 216.819 758.609 214.844C759.648 212.844 761.058 211.264 762.839 210.104C764.645 208.944 766.697 208.339 768.998 208.289C771.273 208.289 773.301 208.857 775.082 209.993C776.863 211.104 778.26 212.634 779.274 214.585C780.289 216.535 780.796 218.769 780.796 221.287C780.796 223.806 780.276 226.065 779.237 228.064C778.223 230.064 776.813 231.644 775.008 232.804C773.227 233.94 771.174 234.533 768.849 234.582ZM768.775 232.027C770.506 232.027 772.04 231.57 773.375 230.657C774.711 229.743 775.762 228.484 776.529 226.879C777.296 225.25 777.679 223.398 777.679 221.325C777.679 219.3 777.308 217.498 776.566 215.918C775.824 214.338 774.798 213.103 773.487 212.215C772.201 211.326 770.729 210.882 769.072 210.882C767.34 210.882 765.807 211.338 764.471 212.252C763.136 213.165 762.085 214.424 761.318 216.029C760.551 217.634 760.168 219.473 760.168 221.547C760.168 223.571 760.539 225.373 761.281 226.953C762.023 228.533 763.037 229.78 764.323 230.694C765.609 231.582 767.093 232.027 768.775 232.027ZM769.369 206.697L772.596 200.92H769.406L767.402 206.141L769.369 206.697Z" fill="black"/>
<path d="M720.696 223.322L720.956 221.1H729.044V232.839C728.524 233.16 727.869 233.457 727.077 233.728C726.286 234 725.445 234.21 724.554 234.358C723.689 234.506 722.835 234.58 721.995 234.58C719.447 234.58 717.209 234.012 715.279 232.876C713.375 231.716 711.903 230.161 710.864 228.21C709.85 226.26 709.343 224.063 709.343 221.619C709.343 219.644 709.665 217.854 710.308 216.249C710.976 214.62 711.891 213.213 713.053 212.027C714.241 210.842 715.626 209.941 717.209 209.324C718.792 208.682 720.498 208.361 722.328 208.361C722.848 208.361 723.503 208.411 724.295 208.509C725.086 208.608 725.878 208.769 726.669 208.991C727.485 209.188 728.153 209.46 728.673 209.806L727.745 211.953C727.201 211.731 726.682 211.546 726.187 211.398C725.692 211.225 725.148 211.102 724.554 211.028C723.961 210.929 723.244 210.879 722.403 210.879C721.116 210.879 719.88 211.126 718.693 211.62C717.505 212.089 716.429 212.78 715.465 213.694C714.525 214.583 713.783 215.694 713.239 217.027C712.695 218.36 712.423 219.878 712.423 221.582C712.423 223.705 712.831 225.556 713.647 227.137C714.488 228.717 715.626 229.939 717.06 230.803C718.519 231.642 720.152 232.062 721.957 232.062C722.823 232.062 723.615 231.988 724.332 231.84C725.049 231.691 725.692 231.519 726.261 231.321V223.322H720.696Z" fill="black"/>
<path d="M682.502 234.062H667.328V208.88H681.092L681.426 211.102H670.221V220.101H678.977L679.311 222.322H670.221V231.766H682.168L682.502 234.062Z" fill="black"/>
<path d="M619.758 234.062H616.864V208.88H619.164L631.445 225.915L632.966 228.396V208.88H635.934V234.062H633.597L620.723 215.953L619.758 214.324V234.062Z" fill="black"/>
<path d="M1534.89 104.182H1615.08V116.306H1550.66V133.902H1608.97V145.274H1550.66V163.943H1615.63V176.067H1534.89V104.182Z" fill="black"/>
<path d="M1473.03 102H1476.61C1503.11 102 1521.58 112.002 1521.47 132.674H1505.5C1505.5 122.338 1495.62 115.67 1476.61 115.67H1473.03C1454.24 115.67 1443.81 122.894 1443.81 137.564V142.343C1443.81 157.347 1454.24 164.571 1473.03 164.571H1476.61C1495.62 164.571 1505.83 157.569 1505.83 147.567H1521.79C1521.68 167.349 1503 178.241 1476.61 178.241H1473.03C1447.28 178.241 1427.95 167.127 1427.95 142.343V137.564C1427.95 112.669 1447.28 102 1473.03 102Z" fill="black"/>
<path d="M1327.56 104.182H1347.76L1397.27 157.076H1400.09V104.182H1414.86V176.067H1394.66L1345.15 123.172H1342.33V176.067H1327.56V104.182Z" fill="black"/>
<path d="M1233.72 104.182H1313.91V116.306H1249.49V133.902H1307.8V145.274H1249.49V163.943H1314.47V176.067H1233.72V104.182Z" fill="black"/>
<path d="M1128.97 104.182H1177.72C1205.08 104.182 1220.63 114.053 1220.63 137.228V143.343C1220.63 166.41 1205.63 176.067 1177.72 176.067H1128.97V104.182ZM1144.74 116.735V163.514H1177.72C1197.02 163.514 1204.41 157.183 1204.41 143.343V137.228C1204.41 123.494 1197.25 116.735 1177.72 116.735H1144.74Z" fill="black"/>
<path d="M1026.4 104.182H1046.59L1096.1 157.076H1098.93V104.182H1113.69V176.067H1093.5L1043.99 123.172H1041.17V176.067H1026.4V104.182Z" fill="black"/>
<path d="M932.557 104.182H1012.75V116.306H948.328V133.902H1006.64V145.274H948.328V163.943H1013.3V176.067H932.557V104.182Z" fill="black"/>
<path d="M836.535 104.182H891.099C910.911 104.182 919.464 112.336 919.464 125.855V128.966C919.464 143.021 910.911 150.961 891.099 150.961H852.016V176.067H836.535V104.182ZM852.016 116.735V138.408H889.259C898.353 138.408 903.549 135.94 903.549 128.537V126.284C903.549 119.31 898.353 116.735 889.259 116.735H852.016Z" fill="black"/>
<path d="M742.693 104.182H822.885V116.306H758.465V133.902H816.776V145.274H758.465V163.943H823.44V176.067H742.693V104.182Z" fill="black"/>
<path d="M640.123 104.182H687.715C714.417 104.182 729.599 114.053 729.599 137.228V143.343C729.599 166.41 714.956 176.067 687.715 176.067H640.123V104.182ZM655.52 116.735V163.514H687.715C706.557 163.514 713.771 157.183 713.771 143.343V137.228C713.771 123.494 706.773 116.735 687.715 116.735H655.52Z" fill="black"/>
<path d="M535.37 104.182H556.07L606.818 157.076H609.711V104.182H624.846V176.067H604.147L553.399 123.172H550.505V176.067H535.37V104.182Z" fill="black"/>
<path d="M522.276 176.063H507V112.892C507 116.168 510.055 118.268 513.97 118.268H515.211C518.911 118.268 522.074 116.298 522.267 113.196L522.276 112.892V176.063Z" fill="black"/>
<path d="M513.97 102H515.211C519.03 102 522.276 104.655 522.276 108.535C522.276 112.517 519.03 115.07 515.211 115.07H513.97C510.055 115.07 507 112.517 507 108.535C507 104.655 510.055 102 513.97 102Z" fill="#F60E12"/>
<path d="M35.2689 267.426H6.04609C2.70693 267.426 0 265.183 0 262.416V138.962C0 137.173 1.15238 135.519 3.02305 134.624L32.2458 120.645C36.2765 118.717 41.315 121.127 41.315 124.983V262.416C41.315 265.183 38.608 267.426 35.2689 267.426Z" fill="black"/>
<path d="M91.3627 262.405V89.8078C91.3627 87.8746 92.6896 86.1131 94.7746 85.2783L141.419 60.3668C145.405 58.7711 150.017 61.2008 150.017 64.8963V262.405C150.017 265.178 152.705 267.426 156.022 267.426H183.043C186.359 267.426 189.048 265.178 189.048 262.405V5.02782C189.048 1.34076 184.455 -1.08917 180.471 0.490039L54.7639 64.3597C52.6675 65.1907 51.3311 66.9573 51.3311 68.8975V262.405C51.3311 265.178 54.0195 267.426 57.3358 267.426H85.3579C88.6742 267.426 91.3627 265.178 91.3627 262.405Z" fill="black"/>
<path d="M0 119.917V94.8292C0 92.9008 1.30272 91.1414 3.35584 90.2968L30.225 79.2441C34.1912 77.6126 38.811 80.0513 38.811 83.7764V106.818C38.811 108.619 37.673 110.284 35.8256 111.184L8.95639 124.283C4.97577 126.223 0 123.798 0 119.917Z" fill="#F60E12"/>
<path d="M326.482 91.5056L248.585 58.5162C244.608 56.9221 240.009 59.3543 240.009 63.0519V106.536C240.009 110.577 234.615 112.966 230.638 110.687L201.676 94.0947C200.041 93.1581 199.063 91.6044 199.063 89.9435V5.03297C199.063 1.34214 203.646 -1.09028 207.622 0.490541L368.41 66.1927C370.501 67.0246 371.835 68.793 371.835 70.7351V262.399C371.835 265.176 369.152 267.426 365.843 267.426H205.056C201.746 267.426 199.063 265.176 199.063 262.399V132.088C199.063 128.086 204.367 125.689 208.351 127.89L237.313 143.89C238.996 144.82 240.009 146.398 240.009 148.089V229.161C240.009 231.937 242.692 234.188 246.001 234.188H323.898C327.208 234.188 329.891 231.937 329.891 229.161V159.951V96.0414C329.891 94.1048 328.565 92.3405 326.482 91.5056Z" fill="black"/>
<rect x="440" width="10" height="267" fill="black"/>
</svg>
